<svg width="27" height="13" viewBox="0 0 27 13" fill="none" xmlns="http://www.w3.org/2000/svg">
<path d="M26.9895 6.70773C26.8049 6.96451 26.6573 7.25797 26.4359 7.47807C24.696 9.21788 22.9455 10.942 21.1898 12.6661C20.6046 13.2425 19.703 13.0434 19.4446 12.294C19.297 11.8695 19.4025 11.4922 19.7241 11.1725C20.4253 10.4808 21.1265 9.78384 21.8278 9.08687C22.3286 8.58903 22.8295 8.0912 23.3726 7.55143C23.2144 7.55143 23.1142 7.55143 23.0141 7.55143C15.7698 7.55143 8.52548 7.55143 1.28119 7.55143C0.54833 7.55143 0.274165 7.36802 0 6.71297C0 6.57148 0 6.43523 0 6.29374C0.216169 5.67538 0.648506 5.4448 1.30228 5.45004C8.53076 5.46052 15.7592 5.45528 22.9877 5.45528C23.0931 5.45528 23.1986 5.45528 23.3409 5.45528C23.2935 5.38715 23.2671 5.33999 23.2302 5.30331C22.0703 4.15042 20.9051 3.00278 19.7452 1.84989C19.2917 1.39922 19.2654 0.733689 19.6924 0.303977C20.1301 -0.136216 20.7733 -0.0942928 21.2794 0.403544C22.9719 2.07523 24.6643 3.75215 26.3568 5.42908C26.3831 5.45528 26.4095 5.47624 26.4306 5.50244C26.6204 5.76446 26.8102 6.02648 27 6.29374C26.9895 6.42999 26.9895 6.57148 26.9895 6.70773Z" fill="white"/>
</svg>
