<svg width="159" height="49" viewBox="0 0 159 49" fill="none" xmlns="http://www.w3.org/2000/svg">
<path d="M17.4458 14.3381H13.0137L11.8483 11.4245H5.61515L4.43208 14.3381H0L6.33912 0H11.1244L17.4458 14.3381ZM10.8595 8.9348L8.75822 3.70812L6.6393 8.9348H10.8595Z" fill="#7EC909"/>
<path d="M30.2478 14.3381H19.353V0H23.6792V10.9125H30.2478V14.3381Z" fill="#59AD6B"/>
<path d="M45.1678 4.50271C45.1678 5.03245 45.0795 5.54452 44.8852 6.05659C44.691 6.56867 44.4085 7.02777 44.0024 7.46921C43.5962 7.91065 43.0488 8.26381 42.3602 8.52867C41.6715 8.79354 40.8593 8.9348 39.9058 8.9348H37.0805V14.3204H32.7544V0H39.9058C40.8416 0 41.6539 0.141262 42.3602 0.406127C43.0665 0.670993 43.5962 1.0418 44.0024 1.48325C44.4085 1.92469 44.7087 2.40145 44.8852 2.91352C45.0618 3.42559 45.1678 3.97298 45.1678 4.50271ZM40.771 4.53803C40.771 3.84938 40.5768 3.39028 40.1706 3.14307C39.7645 2.89586 39.0405 2.77226 37.9987 2.77226H37.0805V6.23317H38.0164C38.7404 6.23317 39.2877 6.1802 39.6762 6.09191C40.0647 6.00362 40.3472 5.8447 40.5061 5.59749C40.665 5.35029 40.771 4.97947 40.771 4.53803Z" fill="#4CBCBF"/>
<path d="M58.0586 14.338H54.3328V12.8371C53.8031 13.4021 53.2557 13.8259 52.673 14.1084C52.0903 14.3909 51.4016 14.5322 50.5894 14.5322C49.0002 14.5322 47.976 14.0731 47.4993 13.1372C47.0225 12.2014 46.793 11.1596 46.793 9.99416V3.81396H50.5187V9.49975C50.5187 10.0648 50.607 10.5769 50.8013 11.0007C50.9955 11.4244 51.4016 11.654 52.0373 11.654C52.5847 11.654 53.0085 11.4951 53.3263 11.1949C53.6442 10.8947 53.962 10.4886 54.2975 10.0118V3.83162H58.0233V14.338H58.0586Z" fill="#4CBCBF"/>
<path d="M64.3626 14.3381H60.6191V0H64.3626V14.3381Z" fill="#4CBCBF"/>
<path d="M85.6925 14.3381H81.9667V8.72295C81.9667 7.98133 81.8431 7.41628 81.5959 7.04547C81.3487 6.67466 80.9602 6.49808 80.4305 6.49808C79.9184 6.49808 79.4946 6.657 79.1592 6.97484C78.8237 7.29268 78.4882 7.68115 78.1703 8.1579V14.3381H74.4445V8.72295C74.4445 8.01664 74.3386 7.46925 74.109 7.08078C73.8795 6.69231 73.4734 6.49808 72.8907 6.49808C72.6081 6.49808 72.3609 6.55105 72.1314 6.657C71.9018 6.76294 71.7076 6.88655 71.5663 7.02781C71.4251 7.16907 71.2485 7.36331 71.0366 7.64583C70.8247 7.92835 70.7011 8.08727 70.6481 8.1579V14.3381H66.9224V3.81411H70.6481V5.33267C71.2132 4.73231 71.7782 4.30852 72.3609 4.04366C72.9436 3.77879 73.6146 3.63753 74.3739 3.63753C74.7271 3.63753 75.0802 3.67285 75.3981 3.74348C75.7159 3.81411 76.0337 3.92005 76.3516 4.07897C76.6694 4.23789 76.9519 4.44979 77.1991 4.73231C77.4464 5.01483 77.6582 5.29736 77.8172 5.66817C78.4175 4.99717 79.0355 4.4851 79.6889 4.13195C80.3422 3.77879 81.0838 3.61987 81.9138 3.61987C82.7437 3.61987 83.4676 3.79645 84.0327 4.13195C84.5977 4.46744 85.0215 4.96186 85.2864 5.59754C85.5512 6.23321 85.6925 7.01015 85.6925 7.92835V14.3381Z" fill="#4CBCBF"/>
<path d="M99.5364 9.05845C99.5364 10.1003 99.3068 11.0361 98.8477 11.866C98.3886 12.6959 97.7176 13.3316 96.7994 13.8084C95.8812 14.2851 94.7864 14.5147 93.4798 14.5147C92.1731 14.5147 91.0783 14.2851 90.1601 13.8084C89.2419 13.3316 88.5709 12.6783 88.1295 11.866C87.688 11.0538 87.4585 10.1179 87.4585 9.05845C87.4585 8.26385 87.5821 7.53988 87.8293 6.90421C88.0765 6.26853 88.465 5.68582 88.9771 5.17375C89.4891 4.66168 90.1248 4.29087 90.8841 4.026C91.6434 3.76113 92.5086 3.61987 93.4974 3.61987C94.4863 3.61987 95.3691 3.76113 96.1284 4.026C96.8877 4.29087 97.5234 4.67934 98.0178 5.17375C98.5122 5.66817 98.9007 6.23321 99.1479 6.88655C99.3951 7.53988 99.5364 8.26385 99.5364 9.05845ZM95.6164 9.05845C95.6164 8.22853 95.4398 7.5752 95.069 7.09844C94.6982 6.62168 94.1861 6.39213 93.4974 6.39213C92.8088 6.39213 92.2967 6.62168 91.9259 7.09844C91.5551 7.5752 91.3785 8.22853 91.3785 9.05845C91.3785 9.88836 91.5551 10.5417 91.9259 11.0185C92.2967 11.4952 92.8088 11.7424 93.4798 11.7424C94.1684 11.7424 94.6982 11.4952 95.0513 11.0185C95.4045 10.5417 95.6164 9.90602 95.6164 9.05845Z" fill="#4CBCBF"/>
<path d="M105.505 12.3074C105.505 12.9254 105.294 13.4551 104.87 13.8789C104.446 14.3027 103.916 14.5323 103.298 14.5323C102.68 14.5323 102.151 14.3204 101.709 13.8789C101.268 13.4375 101.038 12.9254 101.038 12.3074C101.038 11.6894 101.25 11.1596 101.709 10.7359C102.168 10.3121 102.68 10.0825 103.298 10.0825C103.687 10.0825 104.058 10.1885 104.393 10.3827C104.729 10.5769 105.011 10.8595 105.205 11.195C105.4 11.5305 105.505 11.9013 105.505 12.3074Z" fill="#6E7575"/>
<path d="M116.682 4.37915L115.305 8.10493C114.74 7.5752 114.175 7.29268 113.592 7.29268C113.063 7.29268 112.621 7.46925 112.233 7.82241C111.844 8.17556 111.491 8.8289 111.138 9.80007V14.3381H107.412V3.81411H111.138V6.35682C111.367 5.72114 111.791 5.12078 112.374 4.52042C112.957 3.92005 113.663 3.61987 114.458 3.61987C114.881 3.61987 115.252 3.6905 115.552 3.81411C115.852 3.93771 116.259 4.11429 116.682 4.37915Z" fill="#6E7575"/>
<path d="M128.672 14.338H124.946V12.8371C124.416 13.4021 123.869 13.8259 123.286 14.1084C122.704 14.3909 122.015 14.5322 121.203 14.5322C119.613 14.5322 118.589 14.0731 118.113 13.1372C117.636 12.2014 117.406 11.1596 117.406 9.99416V3.81396H121.132V9.49975C121.132 10.0648 121.22 10.5769 121.415 11.0007C121.609 11.4244 122.015 11.654 122.651 11.654C123.198 11.654 123.622 11.4951 123.94 11.1949C124.257 10.8947 124.575 10.4886 124.911 10.0118V3.83162H128.637V14.338H128.672Z" fill="#6E7575"/>
<path d="M0.40625 29.2059C0.40625 28.6762 0.512196 28.1818 0.706431 27.705C0.900666 27.2282 1.18319 26.8221 1.53634 26.4513C1.8895 26.0981 2.33094 25.8156 2.82536 25.6037C3.33743 25.3918 3.88482 25.2859 4.50284 25.2859C5.13851 25.2859 5.70356 25.3918 6.19798 25.6037C6.71005 25.8156 7.13384 26.0981 7.48699 26.4513C7.84014 26.8045 8.12267 27.2282 8.29924 27.6873C8.49348 28.1641 8.58177 28.6585 8.58177 29.1882C8.58177 29.7003 8.49348 30.1947 8.29924 30.6715C8.10501 31.1482 7.84014 31.5544 7.48699 31.9252C7.13384 32.296 6.71005 32.5785 6.19798 32.7904C5.6859 33.0023 5.1032 33.1083 4.46752 33.1083C4.06139 33.1083 3.65527 33.0553 3.30211 32.967C2.94896 32.8787 2.61346 32.7374 2.31328 32.5609C2.0131 32.3843 1.74824 32.1724 1.50103 31.9428C1.27148 31.6956 1.05959 31.4308 0.900666 31.1482C0.741746 30.8657 0.618142 30.5479 0.529854 30.23C0.441565 29.9122 0.40625 29.5591 0.40625 29.2059ZM1.53634 29.2059C1.53634 29.612 1.60697 30.0005 1.76589 30.3537C1.92481 30.7068 2.11905 31.0246 2.38391 31.2718C2.64878 31.5191 2.96662 31.731 3.31977 31.8722C3.69058 32.0135 4.07905 32.0841 4.50284 32.0841C4.92662 32.0841 5.31509 32.0135 5.6859 31.8722C6.05672 31.731 6.3569 31.5191 6.62176 31.2718C6.88663 31.0246 7.08086 30.7245 7.23978 30.3713C7.3987 30.0182 7.46933 29.6297 7.46933 29.2236C7.46933 28.7998 7.3987 28.4113 7.23978 28.0581C7.08086 27.705 6.88663 27.4048 6.62176 27.1399C6.3569 26.8751 6.03906 26.6808 5.6859 26.5396C5.31509 26.3983 4.92662 26.3277 4.50284 26.3277C4.07905 26.3277 3.69058 26.3983 3.31977 26.5396C2.94896 26.6808 2.64878 26.8927 2.38391 27.1399C2.11905 27.3872 1.90715 27.705 1.76589 28.0581C1.62463 28.4113 1.53634 28.7821 1.53634 29.2059Z" fill="#6E7575"/>
<path d="M14.2671 28.0054V33.0202H13.2783V30.8836H10.8239V33.0202H9.81738V28.0054H10.8062V29.983H13.2606V28.0054H14.2671Z" fill="#6E7575"/>
<path d="M17.3044 27.8992H17.6575L19.8118 33.0199H18.7523L17.4456 29.7179L16.086 33.0199H14.9912L17.3044 27.8992Z" fill="#6E7575"/>
<path d="M22.7431 29.9829V29.718C22.7431 29.4002 22.6725 29.1706 22.5136 29.047C22.3547 28.9234 22.1428 28.8351 21.8249 28.8351C21.5601 28.8351 21.2776 28.9057 21.0127 29.0293C20.7478 29.1529 20.483 29.3648 20.2534 29.665V28.5702C20.6419 28.1111 21.1893 27.8816 21.9132 27.8816C22.1604 27.8816 22.4076 27.9169 22.6195 27.9875C22.8491 28.0582 23.0257 28.1465 23.2022 28.2877C23.3788 28.429 23.5024 28.5879 23.5907 28.7998C23.679 29.0117 23.732 29.2589 23.732 29.5414V32.1194C23.732 32.2077 23.7496 32.2784 23.7849 32.3137C23.8203 32.349 23.8556 32.3666 23.9262 32.3666C23.9792 32.3666 24.0498 32.349 24.1381 32.296C24.2264 32.243 24.3323 32.1901 24.4559 32.1018V32.7021C24.35 32.7728 24.244 32.8434 24.1558 32.8964C24.0675 32.9494 23.9968 32.9847 23.9262 33.02C23.8556 33.0553 23.7849 33.073 23.7143 33.0906C23.6437 33.1083 23.5731 33.1083 23.5024 33.1083C23.2905 33.1083 23.114 33.073 22.9904 32.9847C22.8667 32.914 22.7785 32.7728 22.7431 32.5962C22.5313 32.7728 22.3017 32.8964 22.0722 32.9847C21.8426 33.073 21.6131 33.1083 21.3835 33.1083C21.2069 33.1083 21.0303 33.073 20.8714 33.0023C20.7125 32.9317 20.5889 32.8434 20.483 32.7375C20.377 32.6315 20.2887 32.4903 20.2357 32.349C20.1828 32.2077 20.1475 32.0488 20.1475 31.8899C20.1475 31.6603 20.1828 31.4661 20.2711 31.3072C20.3594 31.1483 20.4653 31.007 20.6242 30.8834C20.7831 30.7598 20.9597 30.6539 21.1716 30.5656C21.3835 30.4773 21.6131 30.389 21.8779 30.3007L22.7431 29.9829ZM22.7431 30.5302C22.5313 30.6009 22.337 30.6715 22.1428 30.7598C21.9485 30.8304 21.7896 30.9187 21.6307 31.007C21.4718 31.0953 21.3658 31.2012 21.2776 31.3072C21.1893 31.4131 21.1539 31.5544 21.1539 31.6957C21.1539 31.8016 21.1716 31.8899 21.2069 31.9782C21.2422 32.0665 21.2952 32.1371 21.3482 32.2077C21.4012 32.2607 21.4894 32.3137 21.5777 32.349C21.666 32.3843 21.7543 32.402 21.8603 32.402C22.0192 32.402 22.1604 32.3667 22.3017 32.296C22.443 32.2254 22.5842 32.1194 22.7255 31.9958V30.5302H22.7431Z" fill="#6E7575"/>
<path d="M28.7998 29.8065L25.9039 33.1261H25.3389V28.0054H26.3277V31.431L29.2412 28.0054H29.771V33.0202H28.7821V29.8065H28.7998ZM26.7691 25.8335C26.8221 26.0454 26.9104 26.222 27.0693 26.3632C27.1929 26.4692 27.3872 26.5398 27.6344 26.5398C27.8463 26.5398 28.0228 26.4868 28.1464 26.3809C28.27 26.2749 28.3583 26.0984 28.4113 25.8512H29.1706C29.0823 26.3279 28.9057 26.6811 28.6409 26.9283C28.376 27.1755 28.0228 27.2991 27.5991 27.2991C27.1576 27.2991 26.8045 27.1755 26.5396 26.9283C26.2747 26.6811 26.0805 26.3279 26.0099 25.8512H26.7691V25.8335Z" fill="#6E7575"/>
<path d="M35.6684 28.0054V33.0202H34.6796V30.8836H32.2252V33.0202H31.2363V28.0054H32.2252V29.983H34.6796V28.0054H35.6684Z" fill="#6E7575"/>
<path d="M36.8164 30.0181H39.5357V31.0775H36.8164V30.0181Z" fill="#6E7575"/>
<path d="M45.1508 28.0054V33.0202H44.162V28.8883H41.7076V33.0202H40.7188V28.0054H45.1508Z" fill="#6E7575"/>
<path d="M48.2939 28.0054C49.2121 28.0054 49.9008 28.2173 50.3952 28.6587C50.872 29.1001 51.1192 29.7182 51.1192 30.5481C51.1192 30.9189 51.0485 31.272 50.9249 31.5899C50.8013 31.9077 50.6247 32.1726 50.3952 32.4021C50.1656 32.6317 49.9008 32.8083 49.5829 32.9319C49.2651 33.0555 48.9296 33.1261 48.5588 33.1261C48.3999 33.1261 48.241 33.1084 48.082 33.0731C47.9231 33.0378 47.7465 32.9848 47.5523 32.8966V35.5982H46.5635V28.0054H48.2939ZM47.5523 28.8883V31.996C47.8525 32.1373 48.1703 32.2256 48.4882 32.2256C48.7177 32.2256 48.9296 32.1902 49.1238 32.102C49.3181 32.0137 49.4947 31.9077 49.6359 31.7488C49.7772 31.6075 49.8831 31.4133 49.9714 31.2191C50.0597 31.0248 50.095 30.7776 50.095 30.5481C50.095 30.2832 50.0597 30.0537 49.9714 29.8594C49.8831 29.6652 49.7772 29.4886 49.6183 29.3474C49.477 29.2061 49.3004 29.1002 49.1062 29.0295C48.9119 28.9589 48.7001 28.9236 48.4705 28.9236H47.5523V28.8883Z" fill="#6E7575"/>
<path d="M54.5626 27.8992C54.9511 27.8992 55.3219 27.9698 55.6574 28.0934C55.9929 28.217 56.2754 28.3936 56.5226 28.6231C56.7698 28.8527 56.9464 29.1176 57.0877 29.4354C57.229 29.7532 57.2819 30.0887 57.2819 30.4595C57.2819 30.848 57.2113 31.2188 57.0877 31.5543C56.9641 31.8898 56.7699 32.1547 56.5403 32.4019C56.2931 32.6314 56.0106 32.808 55.6751 32.9493C55.3396 33.0905 54.9688 33.1435 54.5626 33.1435C54.1742 33.1435 53.821 33.0729 53.5032 32.9493C53.1853 32.808 52.9028 32.6314 52.6733 32.4019C52.4437 32.1723 52.2495 31.8898 52.1259 31.5543C52.0023 31.2188 51.9316 30.8657 51.9316 30.4949C51.9316 30.1417 52.0023 29.8062 52.1259 29.4884C52.2671 29.1705 52.4437 28.9057 52.6909 28.6761C52.9381 28.4466 53.203 28.27 53.5385 28.1287C53.8387 27.9698 54.1918 27.8992 54.5626 27.8992ZM54.5626 28.7997C54.3331 28.7997 54.1212 28.835 53.9093 28.9233C53.7151 29.0116 53.5385 29.1176 53.3972 29.2765C53.256 29.4177 53.1324 29.5943 53.0617 29.8062C52.9734 30.0181 52.9381 30.23 52.9381 30.4772C52.9381 30.7421 52.9734 30.9893 53.0617 31.2012C53.1324 31.4131 53.256 31.6073 53.3972 31.7662C53.5385 31.9251 53.7151 32.0487 53.9093 32.1194C54.1035 32.2077 54.3331 32.243 54.5626 32.243C54.8275 32.243 55.0571 32.2077 55.2689 32.1194C55.4808 32.0311 55.6574 31.9251 55.7987 31.7662C55.9399 31.6249 56.0635 31.4307 56.1342 31.2188C56.2225 31.0069 56.2578 30.7597 56.2578 30.4772C56.2578 30.23 56.2225 30.0181 56.1342 29.8062C56.0459 29.5943 55.9223 29.4177 55.781 29.2765C55.6221 29.1352 55.4455 29.0116 55.2336 28.9233C55.0394 28.835 54.8098 28.7997 54.5626 28.7997Z" fill="#6E7575"/>
<path d="M59.136 30.6539C59.2949 31.6603 59.8599 32.1548 60.8134 32.1548C61.1313 32.1548 61.4138 32.1018 61.6963 31.9958C61.9789 31.8899 62.2614 31.7486 62.5616 31.5544V32.5079C62.4026 32.6139 62.2614 32.7021 62.1025 32.7728C61.9435 32.8434 61.8023 32.914 61.6434 32.9494C61.4844 33.0023 61.3079 33.0376 61.1313 33.0553C60.9547 33.073 60.7605 33.0906 60.5486 33.0906C60.1601 33.0906 59.807 33.02 59.5068 32.8787C59.2066 32.7375 58.9417 32.5256 58.7475 32.2784C58.5356 32.0312 58.3767 31.7486 58.2707 31.4308C58.1648 31.113 58.1118 30.7775 58.1118 30.4243C58.1118 30.0358 58.1648 29.7003 58.2884 29.3825C58.3943 29.0647 58.5709 28.7998 58.7651 28.5702C58.977 28.3407 59.2243 28.1818 59.5068 28.0582C59.7893 27.9346 60.1071 27.8816 60.4603 27.8816C60.7958 27.8816 61.096 27.9346 61.3608 28.0582C61.6257 28.1641 61.8552 28.3407 62.0495 28.5702C62.2437 28.7998 62.385 29.0823 62.4909 29.4355C62.5969 29.7886 62.6498 30.1771 62.6498 30.6539H59.136ZM61.6787 30.0005C61.661 29.612 61.5551 29.3119 61.3432 29.1C61.1313 28.8881 60.8488 28.7645 60.4956 28.7645C60.1071 28.7645 59.807 28.8704 59.5774 29.0823C59.3479 29.2942 59.2066 29.5944 59.136 30.0005H61.6787Z" fill="#6E7575"/>
<path d="M64.8567 30.0183C65.0686 30.0183 65.2629 29.9653 65.4218 29.8417C65.5807 29.7181 65.722 29.5592 65.8456 29.3296L66.1457 28.7822C66.234 28.6233 66.3047 28.4997 66.3929 28.4114C66.4812 28.3231 66.5695 28.2348 66.6578 28.1819C66.7461 28.1289 66.852 28.0759 66.958 28.0583C67.0639 28.0406 67.2052 28.0229 67.3465 28.0229H67.5584V28.9235H67.3288C67.2052 28.9235 67.1169 28.9588 67.0639 29.0118C66.9933 29.0824 66.9403 29.153 66.8697 29.259L66.6048 29.7181C66.5342 29.824 66.4812 29.93 66.4283 30.0006C66.3576 30.0712 66.3047 30.1419 66.234 30.1948C66.1634 30.2478 66.0928 30.3008 66.0221 30.3361C65.9515 30.3714 65.8632 30.4067 65.7749 30.4421C65.8985 30.4774 66.0045 30.5303 66.1104 30.5833C66.2164 30.6363 66.3047 30.7246 66.4106 30.8129C66.4989 30.9012 66.5872 31.0248 66.6931 31.1484C66.7814 31.2896 66.8874 31.4485 66.9757 31.6251L67.7349 33.0377H66.6402L65.9515 31.6781C65.7926 31.3603 65.616 31.1484 65.4041 31.0248C65.1922 30.9012 65.0156 30.8305 64.8214 30.8305H64.6978V33.0377H63.709V28.0229H64.6978V30.0183H64.8567Z" fill="#6E7575"/>
<path d="M70.8777 28.8883V33.0202H69.8712V28.8883H68.1055V27.9878H72.6258V28.8883H70.8777Z" fill="#6E7575"/>
<path d="M81.3662 34.15H80.3774V33.0199H77.0401V34.15H76.0513V32.1194H76.4574L78.488 27.8992H79.0354L80.9248 32.1194H81.3309V34.15H81.3662ZM79.9183 32.1194L78.7176 29.4884L77.4992 32.1194H79.9183Z" fill="#6E7575"/>
<path d="M83.8386 27.8992H84.1917L86.346 33.0199H85.2865L83.9798 29.7179L82.6202 33.0199H81.5254L83.8386 27.8992Z" fill="#6E7575"/>
<path d="M87.2999 31.9431C87.4412 31.7312 87.5824 31.5546 87.7413 31.3781C87.9003 31.2192 88.0768 31.0955 88.2711 30.9896C88.1122 30.919 87.9532 30.8483 87.812 30.7777C87.6707 30.6894 87.5648 30.5835 87.4588 30.4775C87.3705 30.3539 87.2822 30.2303 87.2469 30.0714C87.194 29.9125 87.1763 29.7536 87.1763 29.5593C87.1763 29.3121 87.2293 29.1002 87.3529 28.906C87.4588 28.7118 87.6177 28.5528 87.812 28.4116C88.0062 28.2703 88.2181 28.1644 88.4476 28.0937C88.6949 28.0231 88.9244 27.9878 89.1893 27.9878H91.061V33.0026H90.0722V31.1662H89.7896C89.666 31.1662 89.5248 31.1838 89.4188 31.2015C89.2952 31.2192 89.1716 31.2721 89.0657 31.3251C88.9597 31.3781 88.8538 31.4664 88.7478 31.5723C88.6419 31.6783 88.5359 31.8019 88.4476 31.9608L87.7943 33.0026H86.6289L87.2999 31.9431ZM90.0368 30.4069V28.8883H89.1716C88.8538 28.8883 88.6066 28.959 88.4476 29.0649C88.2887 29.1885 88.2004 29.3651 88.2004 29.6123C88.2004 29.7006 88.2181 29.7889 88.2534 29.8948C88.2887 30.0008 88.3417 30.0714 88.43 30.142C88.5183 30.2127 88.6066 30.2833 88.7302 30.3363C88.8538 30.3892 89.0127 30.4069 89.1893 30.4069H90.0368Z" fill="#6E7575"/>
<path d="M97.7002 29.9829V29.718C97.7002 29.4002 97.6295 29.1706 97.4706 29.047C97.3117 28.9234 97.0998 28.8351 96.782 28.8351C96.5171 28.8351 96.2346 28.9057 95.9697 29.0293C95.7049 29.1529 95.44 29.3648 95.2104 29.665V28.5702C95.5989 28.1111 96.1463 27.8816 96.8703 27.8816C97.1175 27.8816 97.3647 27.9169 97.5766 27.9875C97.8061 28.0582 97.9827 28.1465 98.1593 28.2877C98.3359 28.429 98.4595 28.5879 98.5477 28.7998C98.636 29.0117 98.689 29.2589 98.689 29.5414V32.1194C98.689 32.2077 98.7067 32.2784 98.742 32.3137C98.7773 32.349 98.8126 32.3666 98.8832 32.3666C98.9362 32.3666 99.0068 32.349 99.0951 32.296C99.1834 32.243 99.2894 32.1901 99.413 32.1018V32.7021C99.307 32.7728 99.2011 32.8434 99.1128 32.8964C99.0245 32.9494 98.9539 32.9847 98.8832 33.02C98.8126 33.0553 98.742 33.073 98.6713 33.0906C98.6007 33.1083 98.5301 33.1083 98.4595 33.1083C98.2476 33.1083 98.071 33.073 97.9474 32.9847C97.8238 32.914 97.7355 32.7728 97.7002 32.5962C97.4883 32.7728 97.2587 32.8964 97.0292 32.9847C96.7996 33.073 96.5701 33.1083 96.3405 33.1083C96.164 33.1083 95.9874 33.073 95.8285 33.0023C95.6695 32.9317 95.5459 32.8434 95.44 32.7375C95.334 32.6315 95.2458 32.4903 95.1928 32.349C95.1398 32.2077 95.1045 32.0488 95.1045 31.8899C95.1045 31.6603 95.1398 31.4661 95.2281 31.3072C95.3164 31.1483 95.4223 31.007 95.5813 30.8834C95.7402 30.7598 95.9167 30.6539 96.1286 30.5656C96.3405 30.4773 96.5701 30.389 96.8349 30.3007L97.7002 29.9829ZM97.7002 30.5302C97.4883 30.6009 97.294 30.6715 97.0998 30.7598C96.9056 30.8304 96.7467 30.9187 96.5877 31.007C96.4288 31.0953 96.3229 31.2012 96.2346 31.3072C96.1463 31.4131 96.111 31.5544 96.111 31.6957C96.111 31.8016 96.1286 31.8899 96.164 31.9782C96.1993 32.0665 96.2522 32.1371 96.3052 32.2077C96.3582 32.2607 96.4465 32.3137 96.5348 32.349C96.6231 32.3843 96.7113 32.402 96.8173 32.402C96.9762 32.402 97.1175 32.3667 97.2587 32.296C97.4 32.2254 97.5413 32.1194 97.6825 31.9958V30.5302H97.7002Z" fill="#6E7575"/>
<path d="M101.938 27.8992H102.291L104.445 33.0199H103.386L102.079 29.7179L100.719 33.0199H99.6245L101.938 27.8992Z" fill="#6E7575"/>
<path d="M106.829 27.8992H107.182L109.336 33.0199H108.277L106.97 29.7179L105.61 33.0199H104.516L106.829 27.8992Z" fill="#6E7575"/>
<path d="M110.837 30.6539C110.996 31.6603 111.561 32.1548 112.515 32.1548C112.832 32.1548 113.115 32.1018 113.398 31.9958C113.68 31.8899 113.963 31.7486 114.263 31.5544V32.5079C114.104 32.6139 113.963 32.7021 113.804 32.7728C113.645 32.8434 113.503 32.914 113.345 32.9494C113.186 33.0023 113.009 33.0376 112.832 33.0553C112.656 33.073 112.462 33.0906 112.25 33.0906C111.861 33.0906 111.508 33.02 111.208 32.8787C110.908 32.7375 110.643 32.5256 110.449 32.2784C110.237 32.0312 110.078 31.7486 109.972 31.4308C109.866 31.113 109.813 30.7775 109.813 30.4243C109.813 30.0358 109.866 29.7003 109.99 29.3825C110.096 29.0647 110.272 28.7998 110.466 28.5702C110.678 28.3407 110.925 28.1818 111.208 28.0582C111.49 27.9346 111.808 27.8816 112.161 27.8816C112.497 27.8816 112.797 27.9346 113.062 28.0582C113.327 28.1641 113.556 28.3407 113.751 28.5702C113.945 28.7998 114.086 29.0823 114.192 29.4355C114.298 29.7886 114.351 30.1771 114.351 30.6539H110.837ZM113.38 30.0005C113.362 29.612 113.256 29.3119 113.044 29.1C112.832 28.8881 112.55 28.7645 112.197 28.7645C111.808 28.7645 111.508 28.8704 111.279 29.0823C111.049 29.2942 110.908 29.5944 110.837 30.0005H113.38Z" fill="#6E7575"/>
<path d="M117.176 28.0054C118.094 28.0054 118.783 28.2173 119.277 28.6587C119.754 29.1001 120.001 29.7182 120.001 30.5481C120.001 30.9189 119.93 31.272 119.807 31.5899C119.683 31.9077 119.507 32.1726 119.277 32.4021C119.047 32.6317 118.783 32.8083 118.465 32.9319C118.147 33.0555 117.811 33.1261 117.441 33.1261C117.282 33.1261 117.123 33.1084 116.964 33.0731C116.805 33.0378 116.628 32.9848 116.434 32.8966V35.5982H115.445V28.0054H117.176ZM116.452 28.8883V31.996C116.752 32.1373 117.07 32.2256 117.388 32.2256C117.617 32.2256 117.829 32.1902 118.023 32.102C118.218 32.0137 118.394 31.9077 118.535 31.7488C118.677 31.6075 118.783 31.4133 118.871 31.2191C118.959 31.0248 118.995 30.7776 118.995 30.5481C118.995 30.2832 118.959 30.0537 118.871 29.8594C118.783 29.6652 118.677 29.4886 118.518 29.3474C118.377 29.2061 118.2 29.1002 118.006 29.0295C117.811 28.9589 117.6 28.9236 117.37 28.9236H116.452V28.8883Z" fill="#6E7575"/>
<path d="M122.121 28.8883V33.0202H121.132V28.0054H124.328V28.9059H122.121V28.8883Z" fill="#6E7575"/>
<path d="M127.506 27.8992C127.895 27.8992 128.266 27.9698 128.601 28.0934C128.937 28.217 129.219 28.3936 129.466 28.6231C129.714 28.8527 129.89 29.1176 130.032 29.4354C130.173 29.7532 130.226 30.0887 130.226 30.4595C130.226 30.848 130.155 31.2188 130.032 31.5543C129.908 31.8898 129.714 32.1547 129.484 32.4019C129.237 32.6314 128.954 32.808 128.619 32.9493C128.283 33.0905 127.913 33.1435 127.506 33.1435C127.118 33.1435 126.765 33.0729 126.447 32.9493C126.129 32.808 125.847 32.6314 125.617 32.4019C125.388 32.1723 125.193 31.8898 125.07 31.5543C124.946 31.2188 124.875 30.8657 124.875 30.4949C124.875 30.1417 124.946 29.8062 125.07 29.4884C125.211 29.1705 125.388 28.9057 125.635 28.6761C125.882 28.4466 126.147 28.27 126.482 28.1287C126.783 27.9698 127.136 27.8992 127.506 27.8992ZM127.489 28.7997C127.259 28.7997 127.047 28.835 126.835 28.9233C126.641 29.0116 126.465 29.1176 126.323 29.2765C126.182 29.4177 126.059 29.5943 125.988 29.8062C125.9 30.0181 125.864 30.23 125.864 30.4772C125.864 30.7421 125.9 30.9893 125.988 31.2012C126.059 31.4131 126.182 31.6073 126.323 31.7662C126.465 31.9251 126.641 32.0487 126.835 32.1194C127.03 32.2077 127.259 32.243 127.489 32.243C127.754 32.243 127.983 32.2077 128.195 32.1194C128.407 32.0311 128.584 31.9251 128.725 31.7662C128.866 31.6249 128.99 31.4307 129.06 31.2188C129.149 31.0069 129.184 30.7597 129.184 30.4772C129.184 30.23 129.149 30.0181 129.06 29.8062C128.972 29.5943 128.848 29.4177 128.707 29.2765C128.548 29.1352 128.372 29.0116 128.16 28.9233C127.966 28.835 127.736 28.7997 127.489 28.7997Z" fill="#6E7575"/>
<path d="M132.962 27.8992H133.315L135.469 33.0199H134.41L133.103 29.7179L131.744 33.0199H130.649L132.962 27.8992Z" fill="#6E7575"/>
<path d="M138.56 27.8992C138.949 27.8992 139.319 27.9698 139.655 28.0934C139.99 28.217 140.273 28.3936 140.52 28.6231C140.767 28.8527 140.944 29.1176 141.085 29.4354C141.227 29.7532 141.279 30.0887 141.279 30.4595C141.279 30.848 141.209 31.2188 141.085 31.5543C140.962 31.8898 140.767 32.1547 140.538 32.4019C140.291 32.6314 140.008 32.808 139.673 32.9493C139.337 33.0905 138.966 33.1435 138.56 33.1435C138.172 33.1435 137.819 33.0729 137.501 32.9493C137.183 32.808 136.9 32.6314 136.671 32.4019C136.441 32.1723 136.247 31.8898 136.123 31.5543C136 31.2188 135.929 30.8657 135.929 30.4949C135.929 30.1417 136 29.8062 136.123 29.4884C136.265 29.1705 136.441 28.9057 136.688 28.6761C136.936 28.4466 137.201 28.27 137.536 28.1287C137.836 27.9698 138.189 27.8992 138.56 27.8992ZM138.56 28.7997C138.331 28.7997 138.119 28.835 137.907 28.9233C137.713 29.0116 137.536 29.1176 137.395 29.2765C137.254 29.4177 137.13 29.5943 137.059 29.8062C136.971 30.0181 136.936 30.23 136.936 30.4772C136.936 30.7421 136.971 30.9893 137.059 31.2012C137.13 31.4131 137.254 31.6073 137.395 31.7662C137.536 31.9251 137.713 32.0487 137.907 32.1194C138.101 32.2077 138.331 32.243 138.56 32.243C138.825 32.243 139.055 32.2077 139.267 32.1194C139.478 32.0311 139.655 31.9251 139.796 31.7662C139.937 31.6249 140.061 31.4307 140.132 31.2188C140.22 31.0069 140.255 30.7597 140.255 30.4772C140.255 30.23 140.22 30.0181 140.132 29.8062C140.043 29.5943 139.92 29.4177 139.779 29.2765C139.62 29.1352 139.443 29.0116 139.231 28.9233C139.037 28.835 138.807 28.7997 138.56 28.7997Z" fill="#6E7575"/>
<path d="M143.398 28.8883V33.0202H142.41V28.0054H145.606V28.9059H143.398V28.8883Z" fill="#6E7575"/>
<path d="M148.766 27.8992C149.154 27.8992 149.525 27.9698 149.861 28.0934C150.196 28.217 150.479 28.3936 150.726 28.6231C150.973 28.8527 151.15 29.1176 151.291 29.4354C151.432 29.7532 151.485 30.0887 151.485 30.4595C151.485 30.848 151.414 31.2188 151.291 31.5543C151.167 31.8898 150.973 32.1547 150.743 32.4019C150.496 32.6314 150.214 32.808 149.878 32.9493C149.543 33.0905 149.172 33.1435 148.766 33.1435C148.377 33.1435 148.024 33.0729 147.706 32.9493C147.388 32.808 147.106 32.6314 146.876 32.4019C146.647 32.1723 146.453 31.8898 146.329 31.5543C146.205 31.2188 146.135 30.8657 146.135 30.4949C146.135 30.1417 146.205 29.8062 146.329 29.4884C146.47 29.1705 146.647 28.9057 146.894 28.6761C147.141 28.4466 147.406 28.27 147.742 28.1287C148.059 27.9698 148.395 27.8992 148.766 27.8992ZM148.766 28.7997C148.536 28.7997 148.324 28.835 148.112 28.9233C147.918 29.0116 147.742 29.1176 147.6 29.2765C147.459 29.4177 147.335 29.5943 147.265 29.8062C147.177 30.0181 147.141 30.23 147.141 30.4772C147.141 30.7421 147.177 30.9893 147.265 31.2012C147.335 31.4131 147.459 31.6073 147.6 31.7662C147.742 31.9251 147.918 32.0487 148.112 32.1194C148.307 32.2077 148.536 32.243 148.766 32.243C149.031 32.243 149.26 32.2077 149.472 32.1194C149.684 32.0311 149.861 31.9251 150.002 31.7662C150.143 31.6249 150.267 31.4307 150.337 31.2188C150.426 31.0069 150.461 30.7597 150.461 30.4772C150.461 30.23 150.426 30.0181 150.337 29.8062C150.249 29.5943 150.125 29.4177 149.984 29.2765C149.825 29.1352 149.649 29.0116 149.437 28.9233C149.243 28.835 149.013 28.7997 148.766 28.7997Z" fill="#6E7575"/>
<path d="M152.581 33.0202V28.0054H154.488C154.752 28.0054 155 28.0407 155.229 28.0937C155.459 28.1466 155.635 28.2526 155.777 28.3585C155.936 28.4821 156.041 28.6234 156.13 28.7823C156.218 28.9412 156.253 29.1178 156.253 29.3297C156.253 29.471 156.236 29.6122 156.183 29.7358C156.13 29.8594 156.077 29.9654 156.006 30.0537C155.936 30.142 155.865 30.2302 155.777 30.3009C155.688 30.3715 155.6 30.4245 155.512 30.4775C155.618 30.5304 155.724 30.5834 155.83 30.654C155.936 30.7247 156.024 30.7953 156.112 30.8836C156.2 30.9719 156.253 31.0778 156.306 31.2014C156.359 31.325 156.377 31.4663 156.377 31.6252C156.377 31.8018 156.342 31.9784 156.289 32.1373C156.236 32.2962 156.13 32.4551 155.988 32.5787C155.847 32.7023 155.671 32.8083 155.459 32.8966C155.247 32.9848 154.982 33.0202 154.664 33.0202H152.581ZM153.569 28.8883V30.1773H154.311C154.594 30.1773 154.805 30.1243 154.964 30.0184C155.123 29.9124 155.212 29.7182 155.212 29.4533C155.212 29.3474 155.176 29.2591 155.123 29.1884C155.07 29.1178 155 29.0648 154.911 29.0119C154.823 28.9589 154.735 28.9412 154.629 28.9059C154.523 28.8883 154.417 28.8706 154.311 28.8706H153.569V28.8883ZM153.569 30.8483V32.1373H154.47C154.594 32.1373 154.699 32.1196 154.805 32.102C154.911 32.0843 155 32.0313 155.07 31.996C155.141 31.943 155.212 31.8724 155.247 31.8018C155.282 31.7135 155.318 31.6252 155.318 31.5016C155.318 31.3957 155.282 31.3074 155.229 31.2191C155.176 31.1484 155.088 31.0778 154.982 31.0248C154.876 30.9719 154.752 30.9366 154.611 30.9012C154.47 30.8836 154.311 30.8659 154.152 30.8659H153.569V30.8483Z" fill="#6E7575"/>
<path d="M157.33 34.3443V34.15C157.489 33.9911 157.613 33.8322 157.666 33.6733C157.719 33.5144 157.772 33.3025 157.772 33.02C157.383 32.914 157.189 32.6668 157.189 32.296C157.189 32.1018 157.26 31.9252 157.383 31.7839C157.524 31.6427 157.666 31.572 157.86 31.572C158.09 31.572 158.266 31.678 158.407 31.8722C158.549 32.0664 158.619 32.3136 158.619 32.6315C158.619 33.0376 158.496 33.3908 158.266 33.6909C158.037 33.9911 157.736 34.2207 157.33 34.3443Z" fill="#6E7575"/>
<path d="M5.06791 41.4072V46.422H4.07907V42.2901H1.62465V46.422H0.618164V41.4072H5.06791Z" fill="#6E7575"/>
<path d="M10.6651 41.4072L7.11591 49H6.00348L7.71627 45.3626L5.77393 41.4249H6.88636L8.246 44.2501L9.53502 41.4249H10.6651V41.4072Z" fill="#6E7575"/>
<path d="M13.0134 41.3193H13.3666L15.5208 46.4401H14.4614L13.1547 43.1381L11.7951 46.4401H10.6826L13.0134 41.3193Z" fill="#6E7575"/>
<path d="M16.2808 46.422V41.4072H17.2696V43.1024H18.4173C18.7352 43.1024 19 43.1553 19.2296 43.2613C19.4591 43.3672 19.6357 43.4908 19.777 43.6498C19.9182 43.8087 20.0242 43.9853 20.0948 44.1795C20.1655 44.3737 20.2008 44.568 20.2008 44.7622C20.2008 44.9564 20.1655 45.1507 20.0948 45.3449C20.0242 45.5391 19.9182 45.7157 19.777 45.8746C19.6357 46.0335 19.4415 46.1748 19.2296 46.2631C19 46.369 18.7352 46.422 18.4173 46.422H16.2808ZM17.2696 44.0029V45.5391H18.1525C18.3114 45.5391 18.4527 45.5215 18.5763 45.4862C18.6999 45.4508 18.8235 45.4155 18.9118 45.3449C19 45.2743 19.0707 45.2036 19.1237 45.0977C19.1766 44.9917 19.1943 44.8858 19.1943 44.7445C19.1943 44.6033 19.1766 44.4973 19.1237 44.409C19.0707 44.3207 19 44.2325 18.9118 44.1795C18.8235 44.1265 18.6999 44.0735 18.5763 44.0559C18.4527 44.0206 18.3114 44.0206 18.1525 44.0206H17.2696V44.0029Z" fill="#6E7575"/>
<path d="M22.3547 41.4072L23.9086 44.4973L25.3741 41.4072H26.3806L26.7338 46.422H25.7979L25.4801 42.9964L23.8909 46.422L22.1958 42.9611L21.9309 46.422H21.0127L21.3482 41.4072H22.3547Z" fill="#6E7575"/>
<path d="M30.2653 41.3193C30.6537 41.3193 31.0246 41.39 31.3601 41.5136C31.6956 41.6372 31.9781 41.8138 32.2253 42.0433C32.4725 42.2729 32.6491 42.5377 32.7903 42.8556C32.9316 43.1734 32.9846 43.5089 32.9846 43.8797C32.9846 44.2682 32.9139 44.639 32.7903 44.9745C32.6667 45.31 32.4725 45.5748 32.2429 45.8221C31.9957 46.0516 31.7132 46.2282 31.3777 46.3694C31.0422 46.493 30.6714 46.5637 30.2653 46.5637C29.8768 46.5637 29.5237 46.493 29.2058 46.3694C28.888 46.2282 28.6055 46.0516 28.3759 45.8221C28.1464 45.5925 27.9521 45.31 27.8285 44.9745C27.7049 44.639 27.6343 44.2858 27.6343 43.915C27.6343 43.5619 27.7049 43.2264 27.8285 42.9085C27.9698 42.5907 28.1464 42.3258 28.3936 42.0963C28.6408 41.8667 28.9056 41.6901 29.2411 41.5489C29.5413 41.3723 29.8945 41.3193 30.2653 41.3193ZM30.2653 42.2022C30.0357 42.2022 29.8238 42.2375 29.6119 42.3258C29.4177 42.4141 29.2411 42.5201 29.0999 42.679C28.9586 42.8202 28.835 42.9968 28.7644 43.2087C28.6937 43.4206 28.6408 43.6325 28.6408 43.8797C28.6408 44.1446 28.6761 44.3918 28.7644 44.6037C28.835 44.8156 28.9586 45.0098 29.0999 45.1687C29.2411 45.3276 29.4177 45.4512 29.6119 45.5219C29.8062 45.6102 30.0357 45.6455 30.2653 45.6455C30.5301 45.6455 30.7597 45.6102 30.9716 45.5219C31.1835 45.4336 31.3601 45.3276 31.5013 45.1687C31.6426 45.0098 31.7662 44.8332 31.8368 44.6213C31.9251 44.4094 31.9604 44.1622 31.9604 43.8797C31.9604 43.6325 31.9251 43.4206 31.8368 43.2087C31.7485 42.9968 31.6249 42.8379 31.4837 42.679C31.3247 42.5377 31.1482 42.4141 30.9363 42.3258C30.742 42.2552 30.5125 42.2022 30.2653 42.2022Z" fill="#6E7575"/>
<path d="M38.5644 41.4072V46.422H37.5756V44.2854H35.1212V46.422H34.1323V41.4072H35.1212V43.3849H37.5756V41.4072H38.5644Z" fill="#6E7575"/>
<path d="M42.3082 41.3193C42.6967 41.3193 43.0675 41.39 43.403 41.5136C43.7385 41.6372 44.021 41.8138 44.2682 42.0433C44.5155 42.2729 44.692 42.5377 44.8333 42.8556C44.9746 43.1734 45.0275 43.5089 45.0275 43.8797C45.0275 44.2682 44.9569 44.639 44.8333 44.9745C44.7097 45.31 44.5155 45.5748 44.2859 45.8221C44.0387 46.0516 43.7562 46.2282 43.4207 46.3694C43.0852 46.493 42.7144 46.5637 42.3082 46.5637C41.9198 46.5637 41.5666 46.493 41.2488 46.3694C40.9309 46.2282 40.6484 46.0516 40.4189 45.8221C40.1893 45.5925 39.9951 45.31 39.8715 44.9745C39.7479 44.639 39.6772 44.2858 39.6772 43.915C39.6772 43.5619 39.7479 43.2264 39.8715 42.9085C40.0127 42.5907 40.1893 42.3258 40.4365 42.0963C40.6837 41.8667 40.9486 41.6901 41.2841 41.5489C41.5843 41.3723 41.9374 41.3193 42.3082 41.3193ZM42.2906 42.2022C42.061 42.2022 41.8491 42.2375 41.6373 42.3258C41.443 42.4141 41.2664 42.5201 41.1252 42.679C40.9839 42.8202 40.8603 42.9968 40.7897 43.2087C40.7191 43.4206 40.6661 43.6325 40.6661 43.8797C40.6661 44.1446 40.7014 44.3918 40.7897 44.6037C40.8603 44.8156 40.9839 45.0098 41.1252 45.1687C41.2664 45.3276 41.443 45.4512 41.6373 45.5219C41.8315 45.6102 42.061 45.6455 42.2906 45.6455C42.5555 45.6455 42.785 45.6102 42.9969 45.5219C43.2088 45.4336 43.3854 45.3276 43.5266 45.1687C43.6679 45.0098 43.7915 44.8332 43.8621 44.6213C43.9504 44.4094 43.9857 44.1622 43.9857 43.8797C43.9857 43.6325 43.9504 43.4206 43.8621 43.2087C43.7738 42.9968 43.6502 42.8379 43.509 42.679C43.35 42.5377 43.1735 42.4141 42.9616 42.3258C42.7673 42.2552 42.5378 42.2022 42.2906 42.2022Z" fill="#6E7575"/>
<path d="M47.7638 41.3193H48.117L50.2712 46.4401H49.2118L47.9051 43.1381L46.5455 46.4401H45.4507L47.7638 41.3193Z" fill="#6E7575"/>
<path d="M53.3615 41.3193C53.7499 41.3193 54.1207 41.39 54.4562 41.5136C54.7917 41.6372 55.0743 41.8138 55.3215 42.0433C55.5687 42.2729 55.7453 42.5377 55.8865 42.8556C56.0278 43.1734 56.0808 43.5089 56.0808 43.8797C56.0808 44.2682 56.0101 44.639 55.8865 44.9745C55.7629 45.31 55.5687 45.5748 55.3391 45.8221C55.0919 46.0516 54.8094 46.2282 54.4739 46.3694C54.1384 46.493 53.7676 46.5637 53.3615 46.5637C52.973 46.5637 52.6198 46.493 52.302 46.3694C51.9842 46.2282 51.7016 46.0516 51.4721 45.8221C51.2425 45.5925 51.0483 45.31 50.9247 44.9745C50.8011 44.639 50.7305 44.2858 50.7305 43.915C50.7305 43.5619 50.8011 43.2264 50.9247 42.9085C51.066 42.5907 51.2425 42.3258 51.4898 42.0963C51.737 41.8667 52.0018 41.6901 52.3373 41.5489C52.6375 41.3723 52.9907 41.3193 53.3615 41.3193ZM53.3615 42.2022C53.1319 42.2022 52.92 42.2375 52.7081 42.3258C52.5139 42.4141 52.3373 42.5201 52.1961 42.679C52.0548 42.8202 51.9312 42.9968 51.8606 43.2087C51.7899 43.4206 51.737 43.6325 51.737 43.8797C51.737 44.1446 51.7723 44.3918 51.8606 44.6037C51.9312 44.8156 52.0548 45.0098 52.1961 45.1687C52.3373 45.3276 52.5139 45.4512 52.7081 45.5219C52.9024 45.6102 53.1319 45.6455 53.3615 45.6455C53.6263 45.6455 53.8559 45.6102 54.0678 45.5219C54.2797 45.4336 54.4562 45.3276 54.5975 45.1687C54.7388 45.0098 54.8624 44.8332 54.933 44.6213C55.0213 44.4094 55.0566 44.1622 55.0566 43.8797C55.0566 43.6325 55.0213 43.4206 54.933 43.2087C54.8447 42.9968 54.7211 42.8379 54.5798 42.679C54.4209 42.5377 54.2444 42.4141 54.0325 42.3258C53.8382 42.2552 53.6087 42.2022 53.3615 42.2022Z" fill="#6E7575"/>
<path d="M58.1993 42.3079V46.4398H57.2104V41.425H60.4065V42.3256H58.1993V42.3079Z" fill="#6E7575"/>
<path d="M63.567 41.3193C63.9555 41.3193 64.3263 41.39 64.6618 41.5136C64.9973 41.6372 65.2798 41.8138 65.527 42.0433C65.7743 42.2729 65.9508 42.5377 66.0921 42.8556C66.2334 43.1734 66.2863 43.5089 66.2863 43.8797C66.2863 44.2682 66.2157 44.639 66.0921 44.9745C65.9685 45.31 65.7742 45.5748 65.5447 45.8221C65.2975 46.0516 65.015 46.2282 64.6795 46.3694C64.344 46.493 63.9732 46.5637 63.567 46.5637C63.1786 46.5637 62.8254 46.493 62.5076 46.3694C62.1897 46.2282 61.9072 46.0516 61.6777 45.8221C61.4481 45.5925 61.2539 45.31 61.1303 44.9745C61.0067 44.639 60.936 44.2858 60.936 43.915C60.936 43.5619 61.0067 43.2264 61.1303 42.9085C61.2715 42.5907 61.4481 42.3258 61.6953 42.0963C61.9425 41.8667 62.2074 41.6901 62.5429 41.5489C62.8607 41.3723 63.1962 41.3193 63.567 41.3193ZM63.567 42.2022C63.3375 42.2022 63.1256 42.2375 62.9137 42.3258C62.7195 42.4141 62.5429 42.5201 62.4016 42.679C62.2604 42.8202 62.1368 42.9968 62.0661 43.2087C61.9955 43.4206 61.9425 43.6325 61.9425 43.8797C61.9425 44.1446 61.9778 44.3918 62.0661 44.6037C62.1368 44.8156 62.2604 45.0098 62.4016 45.1687C62.5429 45.3276 62.7195 45.4512 62.9137 45.5219C63.1079 45.6102 63.3375 45.6455 63.567 45.6455C63.8319 45.6455 64.0615 45.6102 64.2733 45.5219C64.4852 45.4336 64.6618 45.3276 64.8031 45.1687C64.9443 45.0098 65.0679 44.8332 65.1386 44.6213C65.2269 44.4094 65.2622 44.1622 65.2622 43.8797C65.2622 43.6325 65.2269 43.4206 65.1386 43.2087C65.0503 42.9968 64.9267 42.8379 64.7854 42.679C64.6265 42.5377 64.4499 42.4141 64.238 42.3258C64.0438 42.2552 63.8142 42.2022 63.567 42.2022Z" fill="#6E7575"/>
<path d="M67.3823 46.422V41.4072H69.2894C69.5542 41.4072 69.8014 41.4425 70.031 41.4955C70.2605 41.5485 70.4371 41.6544 70.5784 41.7604C70.7373 41.884 70.8432 42.0252 70.9315 42.1842C71.0198 42.3431 71.0551 42.5197 71.0551 42.7316C71.0551 42.8728 71.0375 43.0141 70.9845 43.1377C70.9492 43.2613 70.8785 43.3672 70.8079 43.4555C70.7373 43.5438 70.6667 43.6321 70.5784 43.7027C70.4901 43.7734 70.4018 43.8263 70.3135 43.8793C70.4194 43.9323 70.5254 43.9853 70.6313 44.0559C70.7373 44.1265 70.8256 44.1971 70.9139 44.2854C71.0022 44.3737 71.0551 44.4797 71.1081 44.6033C71.1611 44.7269 71.1787 44.8681 71.1787 45.0271C71.1787 45.2036 71.1434 45.3802 71.0904 45.5391C71.0375 45.698 70.9315 45.857 70.7903 45.9806C70.649 46.1042 70.4724 46.2101 70.2605 46.2984C70.0486 46.369 69.7838 46.422 69.4659 46.422H67.3823ZM68.3712 42.3078V43.5968H69.1128C69.3953 43.5968 69.6072 43.5438 69.7661 43.4379C69.925 43.3319 70.0133 43.1377 70.0133 42.8728C70.0133 42.7669 69.978 42.6786 69.925 42.6079C69.8721 42.5373 69.8014 42.4843 69.7131 42.4314C69.6249 42.3784 69.5366 42.3607 69.4306 42.3254C69.3247 42.3078 69.2187 42.2901 69.1128 42.2901H68.3712V42.3078ZM68.3712 44.2501V45.5391H69.2717C69.3953 45.5391 69.5012 45.5215 69.6072 45.5038C69.7131 45.4862 69.8014 45.4332 69.8721 45.3802C69.9427 45.3272 70.0133 45.2566 70.0486 45.186C70.084 45.0977 70.1193 45.0094 70.1193 44.8858C70.1193 44.7798 70.084 44.6739 70.031 44.6033C69.978 44.5326 69.8897 44.462 69.7838 44.409C69.6778 44.3561 69.5542 44.3207 69.413 44.2854C69.2717 44.2678 69.1128 44.2501 68.9539 44.2501H68.3712Z" fill="#6E7575"/>
<path d="M78.8774 43.2083L75.9815 46.528H75.4165V41.4072H76.4053V44.8328L79.3189 41.4072H79.8486V46.422H78.8598V43.2083H78.8774Z" fill="#6E7575"/>
<path d="M87.7056 38.7585L91.1136 46.422H90.0011L87.3172 40.2418L84.7921 46.422H83.6797L86.9464 38.7585H87.7056Z" fill="#6E7575"/>
<path d="M91.626 42.6261C91.626 42.0963 91.7319 41.6019 91.9262 41.1252C92.1204 40.6484 92.4029 40.2423 92.7561 39.8715C93.1092 39.5183 93.5507 39.2358 94.0451 39.0239C94.5572 38.812 95.1045 38.7061 95.7226 38.7061C96.3582 38.7061 96.9233 38.812 97.4177 39.0239C97.9298 39.2358 98.3536 39.5183 98.7067 39.8715C99.0599 40.2246 99.3424 40.6484 99.519 41.1252C99.7132 41.6019 99.8015 42.0963 99.8015 42.6261C99.8015 43.1381 99.7132 43.6326 99.519 44.1093C99.3247 44.5861 99.0599 44.9922 98.7067 45.363C98.3536 45.7162 97.9298 46.0163 97.4177 46.2282C96.9056 46.4401 96.3229 46.5461 95.6872 46.5461C95.2811 46.5461 94.875 46.4931 94.5218 46.4048C94.1687 46.3165 93.8332 46.1753 93.533 45.9987C93.2328 45.8221 92.968 45.6102 92.7208 45.3807C92.4912 45.1335 92.2793 44.8686 92.1204 44.5861C91.9615 44.3035 91.8379 43.9857 91.7496 43.6679C91.6613 43.35 91.626 42.9616 91.626 42.6261ZM92.7561 42.6261C92.7561 43.0498 92.8267 43.4207 92.9856 43.7738C93.1269 44.127 93.3388 44.4448 93.6036 44.692C93.8685 44.9569 94.1863 45.1511 94.5395 45.2924C94.9103 45.4336 95.2988 45.5043 95.7226 45.5043C96.1463 45.5043 96.5348 45.4336 96.9056 45.2924C97.2764 45.1511 97.5766 44.9392 97.8415 44.692C98.1064 44.4272 98.3182 44.127 98.4595 43.7738C98.6008 43.4207 98.6891 43.0322 98.6891 42.6261C98.6891 42.2023 98.6184 41.8138 98.4595 41.4607C98.3182 41.1075 98.1064 40.7897 97.8415 40.5425C97.5766 40.2776 97.2588 40.0834 96.9056 39.9421C96.5525 39.8008 96.1463 39.7302 95.7226 39.7302C95.2988 39.7302 94.9103 39.8008 94.5395 39.9421C94.1687 40.0834 93.8685 40.2952 93.6036 40.5425C93.3388 40.8073 93.1269 41.1075 92.9856 41.4607C92.8267 41.8138 92.7561 42.2023 92.7561 42.6261Z" fill="#6E7575"/>
<path d="M101.108 38.8115H103.492C103.898 38.8115 104.269 38.8645 104.569 38.9881C104.87 39.094 105.134 39.253 105.329 39.4649C105.523 39.6768 105.682 39.8886 105.77 40.1712C105.858 40.436 105.911 40.7186 105.911 41.0187C105.911 41.3189 105.858 41.6014 105.752 41.8487C105.647 42.0959 105.488 42.3431 105.276 42.5196C105.064 42.7139 104.799 42.8551 104.481 42.9787C104.163 43.0847 103.775 43.1377 103.333 43.1377H102.186V46.4397H101.091V38.8115H101.108ZM102.203 39.7827V42.1488H103.439C103.651 42.1488 103.828 42.1312 103.987 42.0782C104.146 42.0252 104.287 41.9546 104.41 41.8487C104.534 41.7427 104.622 41.6191 104.675 41.4778C104.746 41.3366 104.764 41.16 104.764 40.9658C104.764 40.8245 104.746 40.6832 104.693 40.542C104.658 40.4007 104.587 40.2771 104.481 40.1712C104.375 40.0652 104.252 39.9769 104.075 39.9063C103.916 39.8357 103.704 39.8004 103.457 39.8004H102.203V39.7827Z" fill="#6E7575"/>
<path d="M106.458 43.4204H109.178V44.4799H106.458V43.4204Z" fill="#6E7575"/>
<path d="M110.308 46.422V41.4072H112.215C112.48 41.4072 112.727 41.4425 112.957 41.4955C113.186 41.5485 113.363 41.6544 113.504 41.7604C113.663 41.884 113.769 42.0252 113.857 42.1842C113.946 42.3431 113.981 42.5197 113.981 42.7316C113.981 42.8728 113.963 43.0141 113.91 43.1377C113.875 43.2613 113.804 43.3672 113.734 43.4555C113.663 43.5438 113.592 43.6321 113.504 43.7027C113.416 43.7734 113.328 43.8263 113.239 43.8793C113.345 43.9323 113.451 43.9853 113.557 44.0559C113.663 44.1265 113.751 44.1971 113.84 44.2854C113.928 44.3737 113.981 44.4797 114.034 44.6033C114.087 44.7269 114.105 44.8681 114.105 45.0271C114.105 45.2036 114.069 45.3802 114.016 45.5391C113.963 45.698 113.857 45.857 113.716 45.9806C113.575 46.1042 113.398 46.2101 113.186 46.2984C112.974 46.369 112.71 46.422 112.392 46.422H110.308ZM111.315 42.3078V43.5968H112.056C112.339 43.5968 112.551 43.5438 112.71 43.4379C112.868 43.3319 112.957 43.1377 112.957 42.8728C112.957 42.7669 112.921 42.6786 112.868 42.6079C112.815 42.5373 112.745 42.4843 112.657 42.4314C112.568 42.3784 112.48 42.3607 112.374 42.3254C112.268 42.3078 112.162 42.2901 112.056 42.2901H111.315V42.3078ZM111.315 44.2501V45.5391H112.215C112.339 45.5391 112.445 45.5215 112.551 45.5038C112.657 45.4862 112.745 45.4332 112.815 45.3802C112.886 45.3272 112.957 45.2566 112.992 45.186C113.027 45.0977 113.063 45.0094 113.063 44.8858C113.063 44.7798 113.027 44.6739 112.974 44.6033C112.921 44.5326 112.833 44.462 112.727 44.409C112.621 44.3561 112.498 44.3207 112.356 44.2854C112.215 44.2678 112.056 44.2501 111.897 44.2501H111.315Z" fill="#6E7575"/>
<path d="M116.982 41.4072C117.9 41.4072 118.589 41.6191 119.083 42.0606C119.56 42.502 119.807 43.1377 119.807 43.9499C119.807 44.3207 119.737 44.6739 119.613 44.9917C119.489 45.3096 119.313 45.5744 119.083 45.804C118.854 46.0335 118.589 46.2101 118.271 46.3337C117.953 46.4573 117.618 46.528 117.247 46.528C117.088 46.528 116.929 46.5103 116.77 46.475C116.611 46.4397 116.435 46.3867 116.24 46.2984V49H115.251V41.4072H116.982ZM116.24 42.3078V45.4155C116.54 45.5568 116.858 45.6451 117.176 45.6451C117.406 45.6451 117.618 45.6098 117.812 45.5215C118.006 45.4332 118.183 45.3096 118.324 45.1683C118.465 45.0271 118.571 44.8328 118.659 44.6386C118.748 44.4267 118.783 44.1971 118.783 43.9676C118.783 43.7027 118.748 43.4732 118.659 43.2789C118.571 43.067 118.465 42.9081 118.306 42.7669C118.165 42.6256 117.988 42.5197 117.794 42.449C117.6 42.3784 117.388 42.3431 117.159 42.3431H116.24V42.3078Z" fill="#6E7575"/>
<path d="M123.074 43.4028V43.1379C123.074 42.8201 123.004 42.5905 122.845 42.4669C122.686 42.3433 122.474 42.255 122.156 42.255C121.891 42.255 121.609 42.3257 121.344 42.4493C121.079 42.5729 120.814 42.7848 120.584 43.0849V41.9902C120.973 41.5311 121.52 41.3015 122.244 41.3015C122.491 41.3015 122.739 41.3368 122.951 41.4075C123.18 41.4781 123.357 41.5664 123.533 41.7076C123.71 41.8489 123.833 42.0078 123.922 42.2197C124.01 42.4316 124.063 42.6788 124.063 42.9613V45.5394C124.063 45.6277 124.081 45.6983 124.116 45.7336C124.151 45.7689 124.187 45.7866 124.257 45.7866C124.31 45.7866 124.381 45.7689 124.469 45.7159C124.557 45.663 124.663 45.61 124.787 45.5217V46.1221C124.681 46.1927 124.575 46.2633 124.487 46.3163C124.399 46.3693 124.328 46.4046 124.257 46.4399C124.187 46.4752 124.116 46.4929 124.045 46.5105C123.975 46.5282 123.904 46.5282 123.833 46.5282C123.622 46.5282 123.445 46.4929 123.321 46.4046C123.198 46.334 123.11 46.1927 123.074 46.0161C122.862 46.1927 122.633 46.3163 122.403 46.4046C122.174 46.4929 121.944 46.5282 121.715 46.5282C121.538 46.5282 121.361 46.4929 121.202 46.4223C121.044 46.3516 120.92 46.2633 120.814 46.1574C120.708 46.0514 120.62 45.9102 120.567 45.7689C120.514 45.6277 120.479 45.4687 120.479 45.3098C120.479 45.0803 120.514 44.886 120.602 44.7271C120.69 44.5682 120.796 44.4269 120.955 44.3033C121.097 44.1797 121.291 44.0738 121.503 43.9855C121.715 43.8972 121.944 43.8089 122.209 43.7206L123.074 43.4028ZM123.074 43.9502C122.862 44.0208 122.668 44.0914 122.474 44.1797C122.28 44.2504 122.121 44.3386 121.962 44.4269C121.82 44.5152 121.697 44.6212 121.609 44.7271C121.52 44.8331 121.485 44.9743 121.485 45.1156C121.485 45.2215 121.503 45.3098 121.538 45.3981C121.573 45.4864 121.626 45.557 121.679 45.6277C121.732 45.6983 121.82 45.7336 121.909 45.7689C121.997 45.8042 122.085 45.8219 122.191 45.8219C122.35 45.8219 122.491 45.7866 122.633 45.7159C122.774 45.6453 122.915 45.5394 123.057 45.4158V43.9502H123.074Z" fill="#6E7575"/>
<path d="M129.572 41.4072V46.422H128.583V44.1971C128.513 44.2678 128.424 44.3207 128.318 44.3737C128.212 44.4267 128.089 44.4797 127.965 44.515C127.842 44.5503 127.7 44.5856 127.559 44.6209C127.418 44.6386 127.294 44.6562 127.171 44.6562C126.535 44.6562 126.058 44.4973 125.758 44.1795C125.458 43.8616 125.299 43.3496 125.299 42.6609V41.4072H126.305V42.6786C126.305 42.9081 126.323 43.1024 126.376 43.2436C126.411 43.3849 126.482 43.5085 126.57 43.5791C126.658 43.6674 126.764 43.7204 126.906 43.738C127.047 43.7557 127.188 43.7734 127.382 43.7734C127.506 43.7734 127.63 43.7557 127.753 43.738C127.877 43.7204 127.983 43.6851 128.106 43.6498C128.212 43.6144 128.318 43.5615 128.407 43.5085C128.495 43.4555 128.565 43.4025 128.618 43.3319V41.4072H129.572Z" fill="#6E7575"/>
<path d="M131.726 44.0739C131.885 45.0804 132.45 45.5748 133.404 45.5748C133.722 45.5748 134.004 45.5219 134.287 45.4159C134.569 45.31 134.852 45.1687 135.152 44.9745V45.928C134.993 46.0339 134.852 46.1222 134.693 46.1929C134.552 46.2635 134.393 46.3341 134.234 46.3694C134.075 46.4224 133.898 46.4577 133.722 46.4754C133.545 46.493 133.351 46.5107 133.139 46.5107C132.75 46.5107 132.397 46.4401 132.097 46.2988C131.797 46.1575 131.532 45.9457 131.338 45.7161C131.126 45.4689 130.967 45.1864 130.861 44.8685C130.755 44.5507 130.702 44.2152 130.702 43.862C130.702 43.4736 130.755 43.1381 130.879 42.8202C130.985 42.5024 131.161 42.2375 131.355 42.008C131.567 41.7784 131.815 41.6195 132.097 41.4959C132.38 41.3723 132.697 41.3193 133.051 41.3193C133.386 41.3193 133.686 41.3723 133.951 41.4959C134.216 41.6195 134.446 41.7784 134.64 42.008C134.834 42.2375 134.975 42.5201 135.081 42.8732C135.187 43.2264 135.24 43.6148 135.24 44.0916H131.726V44.0739ZM134.269 43.4029C134.251 43.0145 134.145 42.7143 133.934 42.5024C133.722 42.2729 133.439 42.1669 133.086 42.1669C132.697 42.1669 132.397 42.2729 132.168 42.4847C131.938 42.6966 131.797 42.9968 131.726 43.4029H134.269Z" fill="#6E7575"/>
<path d="M139.796 43.2083L136.9 46.528H136.335V41.4073H137.324V44.8328L140.238 41.4073H140.768V46.422H139.779V43.2083H139.796ZM137.766 39.2354C137.819 39.4649 137.907 39.6238 138.066 39.7651C138.19 39.871 138.384 39.9417 138.631 39.9417C138.843 39.9417 139.019 39.8887 139.143 39.7827C139.267 39.6768 139.355 39.5002 139.408 39.253H140.167C140.079 39.7298 139.902 40.0829 139.637 40.3301C139.373 40.5773 139.019 40.7009 138.596 40.7009C138.154 40.7009 137.801 40.5773 137.536 40.3301C137.271 40.0829 137.077 39.7298 137.006 39.253H137.766V39.2354Z" fill="#6E7575"/>
</svg>
