<svg width="129" height="15" viewBox="0 0 129 15" fill="none" xmlns="http://www.w3.org/2000/svg">
<path d="M17.4458 14.3381H13.0137L11.8483 11.4245H5.61515L4.43208 14.3381H0L6.33912 0H11.1244L17.4458 14.3381ZM10.8595 8.9348L8.75822 3.70812L6.6393 8.9348H10.8595Z" fill="#7EC909"/>
<path d="M30.2478 14.3381H19.353V0H23.6792V10.9125H30.2478V14.3381Z" fill="#59AD6B"/>
<path d="M45.1678 4.50271C45.1678 5.03245 45.0795 5.54452 44.8852 6.05659C44.691 6.56867 44.4085 7.02777 44.0024 7.46921C43.5962 7.91065 43.0488 8.26381 42.3602 8.52867C41.6715 8.79354 40.8593 8.9348 39.9058 8.9348H37.0805V14.3204H32.7544V0H39.9058C40.8416 0 41.6539 0.141262 42.3602 0.406127C43.0665 0.670993 43.5962 1.0418 44.0024 1.48325C44.4085 1.92469 44.7087 2.40145 44.8852 2.91352C45.0618 3.42559 45.1678 3.97298 45.1678 4.50271ZM40.771 4.53803C40.771 3.84938 40.5768 3.39028 40.1706 3.14307C39.7645 2.89586 39.0405 2.77226 37.9987 2.77226H37.0805V6.23317H38.0164C38.7404 6.23317 39.2877 6.1802 39.6762 6.09191C40.0647 6.00362 40.3472 5.8447 40.5061 5.59749C40.665 5.35029 40.771 4.97947 40.771 4.53803Z" fill="#4CBCBF"/>
<path d="M58.0586 14.338H54.3328V12.8371C53.8031 13.4021 53.2557 13.8259 52.673 14.1084C52.0903 14.3909 51.4016 14.5322 50.5894 14.5322C49.0002 14.5322 47.976 14.0731 47.4993 13.1372C47.0225 12.2014 46.793 11.1596 46.793 9.99416V3.81396H50.5187V9.49975C50.5187 10.0648 50.607 10.5769 50.8013 11.0007C50.9955 11.4244 51.4016 11.654 52.0373 11.654C52.5847 11.654 53.0085 11.4951 53.3263 11.1949C53.6442 10.8947 53.962 10.4886 54.2975 10.0118V3.83162H58.0233V14.338H58.0586Z" fill="#4CBCBF"/>
<path d="M64.3626 14.3381H60.6191V0H64.3626V14.3381Z" fill="#4CBCBF"/>
<path d="M85.6925 14.3381H81.9667V8.72295C81.9667 7.98133 81.8431 7.41628 81.5959 7.04547C81.3487 6.67466 80.9602 6.49808 80.4305 6.49808C79.9184 6.49808 79.4946 6.657 79.1592 6.97484C78.8237 7.29268 78.4882 7.68115 78.1703 8.1579V14.3381H74.4445V8.72295C74.4445 8.01664 74.3386 7.46925 74.109 7.08078C73.8795 6.69231 73.4734 6.49808 72.8907 6.49808C72.6081 6.49808 72.3609 6.55105 72.1314 6.657C71.9018 6.76294 71.7076 6.88655 71.5663 7.02781C71.4251 7.16907 71.2485 7.36331 71.0366 7.64583C70.8247 7.92835 70.7011 8.08727 70.6481 8.1579V14.3381H66.9224V3.81411H70.6481V5.33267C71.2132 4.73231 71.7782 4.30852 72.3609 4.04366C72.9436 3.77879 73.6146 3.63753 74.3739 3.63753C74.7271 3.63753 75.0802 3.67285 75.3981 3.74348C75.7159 3.81411 76.0337 3.92005 76.3516 4.07897C76.6694 4.23789 76.9519 4.44979 77.1991 4.73231C77.4464 5.01483 77.6582 5.29736 77.8172 5.66817C78.4175 4.99717 79.0355 4.4851 79.6889 4.13195C80.3422 3.77879 81.0838 3.61987 81.9138 3.61987C82.7437 3.61987 83.4676 3.79645 84.0327 4.13195C84.5977 4.46744 85.0215 4.96186 85.2864 5.59754C85.5512 6.23321 85.6925 7.01015 85.6925 7.92835V14.3381Z" fill="#4CBCBF"/>
<path d="M99.5364 9.05845C99.5364 10.1003 99.3068 11.0361 98.8477 11.866C98.3886 12.6959 97.7176 13.3316 96.7994 13.8084C95.8812 14.2851 94.7864 14.5147 93.4798 14.5147C92.1731 14.5147 91.0783 14.2851 90.1601 13.8084C89.2419 13.3316 88.5709 12.6783 88.1295 11.866C87.688 11.0538 87.4585 10.1179 87.4585 9.05845C87.4585 8.26385 87.5821 7.53988 87.8293 6.90421C88.0765 6.26853 88.465 5.68582 88.9771 5.17375C89.4891 4.66168 90.1248 4.29087 90.8841 4.026C91.6434 3.76113 92.5086 3.61987 93.4974 3.61987C94.4863 3.61987 95.3691 3.76113 96.1284 4.026C96.8877 4.29087 97.5234 4.67934 98.0178 5.17375C98.5122 5.66817 98.9007 6.23321 99.1479 6.88655C99.3951 7.53988 99.5364 8.26385 99.5364 9.05845ZM95.6164 9.05845C95.6164 8.22853 95.4398 7.5752 95.069 7.09844C94.6982 6.62168 94.1861 6.39213 93.4974 6.39213C92.8088 6.39213 92.2967 6.62168 91.9259 7.09844C91.5551 7.5752 91.3785 8.22853 91.3785 9.05845C91.3785 9.88836 91.5551 10.5417 91.9259 11.0185C92.2967 11.4952 92.8088 11.7424 93.4798 11.7424C94.1684 11.7424 94.6982 11.4952 95.0513 11.0185C95.4045 10.5417 95.6164 9.90602 95.6164 9.05845Z" fill="#4CBCBF"/>
<path d="M105.505 12.3074C105.505 12.9254 105.294 13.4551 104.87 13.8789C104.446 14.3027 103.916 14.5323 103.298 14.5323C102.68 14.5323 102.151 14.3204 101.709 13.8789C101.268 13.4375 101.038 12.9254 101.038 12.3074C101.038 11.6894 101.25 11.1596 101.709 10.7359C102.168 10.3121 102.68 10.0825 103.298 10.0825C103.687 10.0825 104.058 10.1885 104.393 10.3827C104.729 10.5769 105.011 10.8595 105.205 11.195C105.4 11.5305 105.505 11.9013 105.505 12.3074Z" fill="#6E7575"/>
<path d="M116.682 4.37915L115.305 8.10493C114.74 7.5752 114.175 7.29268 113.592 7.29268C113.063 7.29268 112.621 7.46925 112.233 7.82241C111.844 8.17556 111.491 8.8289 111.138 9.80007V14.3381H107.412V3.81411H111.138V6.35682C111.367 5.72114 111.791 5.12078 112.374 4.52042C112.957 3.92005 113.663 3.61987 114.458 3.61987C114.881 3.61987 115.252 3.6905 115.552 3.81411C115.852 3.93771 116.259 4.11429 116.682 4.37915Z" fill="#6E7575"/>
<path d="M128.672 14.338H124.946V12.8371C124.416 13.4021 123.869 13.8259 123.286 14.1084C122.704 14.3909 122.015 14.5322 121.203 14.5322C119.613 14.5322 118.589 14.0731 118.113 13.1372C117.636 12.2014 117.406 11.1596 117.406 9.99416V3.81396H121.132V9.49975C121.132 10.0648 121.22 10.5769 121.415 11.0007C121.609 11.4244 122.015 11.654 122.651 11.654C123.198 11.654 123.622 11.4951 123.94 11.1949C124.257 10.8947 124.575 10.4886 124.911 10.0118V3.83162H128.637V14.338H128.672Z" fill="#6E7575"/>
</svg>
