<svg width="66" height="66" viewBox="0 0 66 66" fill="none" xmlns="http://www.w3.org/2000/svg">
<circle cx="33" cy="33" r="33" fill="#7EC909"/>
<path d="M25.0396 48.4499C25.1189 48.9487 25.3964 49.1083 25.8523 48.9287C25.991 48.8689 26.1496 48.809 26.2884 48.7292C34.3158 44.0606 42.3432 39.412 50.3509 34.7435C50.5094 34.6437 50.668 34.544 50.8067 34.4043C51.0644 34.1649 51.0644 33.8856 50.8067 33.6462C50.6482 33.4865 50.45 33.3668 50.2716 33.2471C42.3036 28.5985 34.3356 23.9499 26.3478 19.3213C26.1496 19.2015 25.9514 19.1018 25.7532 19.0419C25.3964 18.9222 25.1586 19.0619 25.0793 19.421C25.0198 19.6804 25 19.9397 25 20.1792C25 24.7879 25 29.3766 25 33.9853C25 38.594 25 43.2027 25 47.8114C25 48.011 25 48.2304 25.0396 48.4499Z" fill="white"/>
</svg>
