<svg width="15" height="16" viewBox="0 0 15 16" fill="none" xmlns="http://www.w3.org/2000/svg">
<path d="M14.8552 11.3894C14.4542 9.82068 13.4975 8.71622 12.0272 8.01274C12.1538 8.41372 12.3015 8.77953 12.3719 9.15941C12.4211 9.43377 12.4985 9.60261 12.7658 9.73627C13.3075 10.0106 13.5045 10.7 13.2583 11.2488C13.005 11.7975 12.4 12.0718 11.8302 11.896C11.3589 11.7482 11.0282 11.3683 10.986 10.9181C10.9297 10.3483 11.1549 9.94731 11.6473 9.67295C11.7388 9.62371 11.8654 9.49708 11.8583 9.4197C11.795 8.86395 11.6192 8.33634 11.2111 7.93536C11.0915 7.81576 10.9297 7.74542 10.7468 7.65396C10.5639 8.01274 10.3388 8.33634 10.0785 8.59663C9.43133 9.24383 8.46053 9.64481 7.53897 9.64481C6.56816 9.64481 5.70288 9.2368 4.9994 8.59663C4.70394 8.32227 4.47882 7.99867 4.30999 7.63989C4.00045 7.63989 3.77534 7.78762 3.62057 8.04088C3.45877 8.3082 3.35325 8.60366 3.22663 8.89209C3.08593 9.21569 3.20552 9.49005 3.47284 9.64481C4.32406 10.1373 4.49993 10.9885 4.64062 11.8397C4.68987 12.1351 4.68987 12.4447 4.66173 12.7472C4.61248 13.317 4.02156 13.7039 3.47284 13.521C3.34622 13.4788 3.19145 13.2748 3.19849 13.1552C3.20552 13.0497 3.39546 12.9019 3.53616 12.8597C3.69092 12.8105 3.87383 12.8457 4.04266 12.8457C4.22557 11.9241 3.92307 11.1925 3.36029 10.5523C3.03669 10.1795 2.73419 10.2006 2.42466 10.5804C2.29099 10.7422 2.20658 10.9463 2.07292 11.101C1.62972 11.6146 1.67897 12.2125 1.72821 12.8457C1.94629 12.8457 2.14326 12.8105 2.31913 12.8597C2.43873 12.8879 2.59349 13.0215 2.60756 13.1341C2.62867 13.2466 2.53018 13.4366 2.42466 13.4929C1.91815 13.7602 1.18653 13.3592 1.13025 12.7894C1.09508 12.4798 1.08804 12.1562 1.13729 11.8467C1.27095 10.9955 1.48199 10.1724 2.29099 9.66592C2.42466 9.5815 2.55128 9.43377 2.59349 9.29307C2.71308 8.89209 2.79047 8.47704 2.89599 8.03384C1.77042 8.57552 0.940311 9.38453 0.447874 10.5101C0.257934 10.9885 0.0890981 11.3261 0.01875 11.9593C-0.0515982 12.5924 0.0961329 13.3522 0.131307 13.4788C0.38456 14.3863 1.10211 14.9209 2.22065 15.0476C2.3332 15.0616 2.44576 15.0968 2.55128 15.1179H12.4C12.7307 15.0476 13.0613 14.9983 13.3849 14.9139C14.2713 14.6817 14.813 14.126 14.9466 13.2044C15.0733 12.4517 14.9466 11.5161 14.8552 11.3894Z" fill="#4CBCBF"/>
<path d="M12.1537 11.319C12.4562 11.326 12.7447 11.0446 12.7376 10.7492C12.7306 10.4467 12.4773 10.2075 12.1678 10.2004C11.8512 10.2004 11.6191 10.4326 11.6121 10.7492C11.6121 11.0587 11.8512 11.3119 12.1537 11.319Z" fill="#4CBCBF"/>
<path d="M7.51087 8.23073C9.78373 8.23073 11.6262 6.38822 11.6262 4.11537C11.6262 1.84251 9.78373 0 7.51087 0C5.23802 0 3.39551 1.84251 3.39551 4.11537C3.39551 6.38822 5.23802 8.23073 7.51087 8.23073Z" fill="#4CBCBF"/>
</svg>
